<svg xmlns="http://www.w3.org/2000/svg" id="Camada_1" viewBox="0 0 1012.38 1012.38"><defs><style>      .cls-1 {        fill: #ea3738;      }    </style></defs><path class="cls-1" d="M0,0v1012.38h1012.38V0H0ZM843.94,621.04c-59.05,74.2-150.93,96.98-229.39,50.89-42.43-24.94-80.34-58.21-118.11-90.29-52.63-44.72-101.64-93.77-155.19-137.29-55.58-45.16-144.6-2.74-138.55,71.52,4.77,58.46,65.23,87.84,116.23,66.83,17.72-7.3,34.32-17.31,58.14-29.53,21.51,18.96,43.53,38.38,69.38,61.17-38.15,38.71-77.75,69.31-126.89,76.47-139.15,20.28-263.13-115.42-207.94-252.58,35.79-88.97,151.68-146.79,240.81-100.44,43.43,22.59,82.88,54.1,120.88,85.56,57.45,47.56,109.74,101.57,168.72,147,42.7,32.9,88.45,28.4,121.67-15.19,11.62-15.24,18.67-34.53,16.68-53.59-4.87-46.63-56.52-89.34-102.96-73.34-23.23,8.01-44.65,21.28-74.5,35.94-23.92-22.07-43.92-40.52-63.65-58.74,80.85-110.44,233.15-102.19,300.95-14.76,50.77,65.46,55.18,165.72,3.72,230.37Z"></path></svg>